REM DIRINDEX 1\2,1\3,1\4,1\5
REM DIRNAME "folder01","folder02","folder03","folder04","folder05"
TITLE ""
FILE "1Q_t_1679-1688.mp3" MP3
  TRACK 01 AUDIO
    TITLE "0:"
    INDEX 01 00:00:00
  TRACK 02 AUDIO
    TITLE "3:cjc172_6028"
    INDEX 01 00:00:08
  TRACK 03 AUDIO
    TITLE "0:"
    INDEX 01 00:01:12
  TRACK 04 AUDIO
    TITLE "4:cjc172_6029"
    INDEX 01 00:01:23
  TRACK 05 AUDIO
    TITLE "0:"
    INDEX 01 00:02:43
  TRACK 06 AUDIO
    TITLE "5:cjc172_6030"
    INDEX 01 00:02:50
  TRACK 07 AUDIO
    TITLE "0:"
    INDEX 01 00:06:34
  TRACK 08 AUDIO
    TITLE "3:cjc172_6031"
    INDEX 01 00:07:06
  TRACK 09 AUDIO
    TITLE "0:"
    INDEX 01 00:08:08
  TRACK 10 AUDIO
    TITLE "4:cjc172_6032"
    INDEX 01 00:08:20
  TRACK 11 AUDIO
    TITLE "0:"
    INDEX 01 00:10:56
  TRACK 12 AUDIO
    TITLE "5:cjc172_6033"
    INDEX 01 00:10:64
  TRACK 13 AUDIO
    TITLE "0:"
    INDEX 01 00:14:42
  TRACK 14 AUDIO
    TITLE "3:cjc172_6034"
    INDEX 01 00:15:14
  TRACK 15 AUDIO
    TITLE "0:"
    INDEX 01 00:16:27
  TRACK 16 AUDIO
    TITLE "4:cjc172_6035"
    INDEX 01 00:16:41
  TRACK 17 AUDIO
    TITLE "0:"
    INDEX 01 00:17:71
  TRACK 18 AUDIO
    TITLE "5:cjc172_6036"
    INDEX 01 00:18:04
  TRACK 19 AUDIO
    TITLE "0:"
    INDEX 01 00:21:58
  TRACK 20 AUDIO
    TITLE "3:cjc172_6037"
    INDEX 01 00:22:30
  TRACK 21 AUDIO
    TITLE "0:"
    INDEX 01 00:23:39
  TRACK 22 AUDIO
    TITLE "4:cjc172_6038"
    INDEX 01 00:23:51
  TRACK 23 AUDIO
    TITLE "0:"
    INDEX 01 00:26:68
  TRACK 24 AUDIO
    TITLE "5:cjc172_6039"
    INDEX 01 00:27:03
  TRACK 25 AUDIO
    TITLE "0:"
    INDEX 01 00:30:51
  TRACK 26 AUDIO
    TITLE "3:cjc172_6040"
    INDEX 01 00:31:23
  TRACK 27 AUDIO
    TITLE "0:"
    INDEX 01 00:32:49
  TRACK 28 AUDIO
    TITLE "4:cjc172_6041"
    INDEX 01 00:32:59
  TRACK 29 AUDIO
    TITLE "0:"
    INDEX 01 00:34:11
  TRACK 30 AUDIO
    TITLE "5:cjc172_6042"
    INDEX 01 00:34:21
  TRACK 31 AUDIO
    TITLE "0:"
    INDEX 01 00:39:12
  TRACK 32 AUDIO
    TITLE "3:cjc172_6043"
    INDEX 01 00:39:59
  TRACK 33 AUDIO
    TITLE "0:"
    INDEX 01 00:40:67
  TRACK 34 AUDIO
    TITLE "4:cjc172_6044"
    INDEX 01 00:41:03
  TRACK 35 AUDIO
    TITLE "0:"
    INDEX 01 00:43:34
  TRACK 36 AUDIO
    TITLE "5:cjc172_6045"
    INDEX 01 00:43:41
  TRACK 37 AUDIO
    TITLE "0:"
    INDEX 01 00:47:65
  TRACK 38 AUDIO
    TITLE "3:cjc172_6046"
    INDEX 01 00:48:37
  TRACK 39 AUDIO
    TITLE "0:"
    INDEX 01 00:49:48
  TRACK 40 AUDIO
    TITLE "4:cjc172_6047"
    INDEX 01 00:49:66
  TRACK 41 AUDIO
    TITLE "0:"
    INDEX 01 00:51:68
  TRACK 42 AUDIO
    TITLE "5:cjc172_6048"
    INDEX 01 00:52:03
  TRACK 43 AUDIO
    TITLE "0:"
    INDEX 01 00:56:62
  TRACK 44 AUDIO
    TITLE "3:cjc172_6049"
    INDEX 01 00:57:36
  TRACK 45 AUDIO
    TITLE "0:"
    INDEX 01 00:58:39
  TRACK 46 AUDIO
    TITLE "4:cjc172_6050"
    INDEX 01 00:58:53
  TRACK 47 AUDIO
    TITLE "0:"
    INDEX 01 01:01:10
  TRACK 48 AUDIO
    TITLE "5:cjc172_6051"
    INDEX 01 01:01:18
  TRACK 49 AUDIO
    TITLE "0:"
    INDEX 01 01:06:62
  TRACK 50 AUDIO
    TITLE "3:cjc172_6052"
    INDEX 01 01:07:34
  TRACK 51 AUDIO
    TITLE "0:"
    INDEX 01 01:08:55
  TRACK 52 AUDIO
    TITLE "4:cjc172_6053"
    INDEX 01 01:08:67
  TRACK 53 AUDIO
    TITLE "0:"
    INDEX 01 01:12:43
  TRACK 54 AUDIO
    TITLE "5:cjc172_6054"
    INDEX 01 01:12:51
  TRACK 55 AUDIO
    TITLE "0:"
    INDEX 01 01:17:52
  TRACK 56 AUDIO
    TITLE "3:cjc172_6055"
    INDEX 01 01:18:22
  TRACK 57 AUDIO
    TITLE "0:"
    INDEX 01 01:19:53
  TRACK 58 AUDIO
    TITLE "4:cjc172_6056"
    INDEX 01 01:19:63
  TRACK 59 AUDIO
    TITLE "0:"
    INDEX 01 01:21:40
  TRACK 60 AUDIO
    TITLE "5:cjc172_6057"
    INDEX 01 01:21:50
  TRACK 61 AUDIO
    TITLE "0:"
    INDEX 01 01:25:50
